Coordinates
version=1
nRows=13
nColumns=34
inDegrees=yes

Units are S.I. units (second, meters, Newtons, ...)
If the header above contains a line with 'inDegrees', this indicates whether rotational values are in degrees (yes) or radians (no).

endheader
time	pelvis_tilt	pelvis_list	pelvis_rotation	pelvis_tx	pelvis_ty	pelvis_tz	hip_flexion_r	hip_adduction_r	hip_rotation_r	knee_angle_r	ankle_angle_r	subtalar_angle_r	mtp_angle_r	hip_flexion_l	hip_adduction_l	hip_rotation_l	knee_angle_l	ankle_angle_l	subtalar_angle_l	mtp_angle_l	lumbar_extension	lumbar_bending	lumbar_rotation	arm_flex_r	arm_add_r	arm_rot_r	elbow_flex_r	pro_sup_r	arm_flex_l	arm_add_l	arm_rot_l	elbow_flex_l	pro_sup_l
      6.46666670	     -6.31276928	    -11.50482760	      3.92922292	      2.07594737	      0.68354393	     -0.61521430	     77.15220997	      3.45956579	     -9.53840398	     90.57743380	     26.54557289	    -14.18607833	      0.00000000	    -24.22491984	    -15.46033784	     -3.37104270	     56.86108620	    -11.80480282	     -6.17311243	      0.00000000	    -14.91319231	     16.59156885	     -8.85167197	     -9.02875157	    -16.66911372	     -4.64202029	     31.82424840	     67.60641586	     39.26191274	      4.55688214	     31.81138209	    140.64486840	     90.17976505
      6.47500000	     -5.99529055	    -11.36504327	      4.04029566	      2.07108820	      0.68939402	     -0.61639952	     76.51027790	      3.23613364	     -9.42220075	     89.55823225	     25.88093386	    -13.91477108	      0.00000000	    -23.85148427	    -15.32277441	     -3.20433413	     57.17773629	    -12.11430655	     -5.92083758	      0.00000000	    -14.97022647	     16.46634634	     -8.93913184	     -9.20109461	    -16.75263109	     -4.73381798	     31.76793708	     67.65523108	     39.21870932	      4.41062075	     31.70392512	    140.68360847	     90.14074398
      6.48333330	     -5.57789607	    -11.26360955	      4.24918242	      2.06964169	      0.69265938	     -0.61714885	     75.81096642	      2.98199279	     -9.38392371	     88.83325978	     25.26393658	    -13.86576787	      0.00000000	    -23.89126471	    -15.27170177	     -3.08662127	     57.30919743	    -11.48329432	     -6.17864740	      0.00000000	    -14.79499988	     16.31642702	     -9.26180220	     -9.56452828	    -16.78647725	     -4.82956347	     31.63847490	     67.70088602	     39.28950909	      4.23190603	     31.48064066	    140.69256496	     90.08866794
      6.49166670	     -5.04457460	    -11.06081579	      4.72011816	      2.06228051	      0.69675466	     -0.61949748	     75.04487315	      2.36424467	     -9.23354578	     88.06980102	     23.83778387	    -14.71071280	      0.00000000	    -24.10716250	    -15.16981965	     -2.71546220	     57.01391856	     -9.58126992	     -5.58239416	      0.00000000	    -15.05301142	     16.09595797	     -9.91876576	     -9.37624687	    -16.69849488	     -5.12014790	     31.72904900	     67.89290815	     39.62286417	      4.02389430	     30.82839725	    140.66222577	     89.87301703
      6.50000000	     -4.66517949	    -10.93653154	      4.82941748	      2.05700099	      0.70419550	     -0.62135760	     74.05262448	      2.19864468	     -9.13823001	     86.59581898	     23.04529391	    -14.50747551	      0.00000000	    -23.90412363	    -14.92193598	     -2.44303339	     57.01331957	     -8.75097697	     -5.69954378	      0.00000000	    -15.01970405	     16.04224650	     -9.91258010	     -9.59620027	    -16.84651772	     -5.21142632	     31.56694837	     67.95462616	     39.24205075	      3.74159210	     30.69440720	    140.75093158	     89.80734949
      6.50833330	     -4.09145378	    -10.87256076	      5.15894054	      2.05162628	      0.70980378	     -0.62351521	     72.95757545	      1.90609347	     -9.15807295	     85.48536986	     20.54727857	    -15.22002049	      0.00000000	    -24.01742027	    -14.94951672	     -2.43771102	     56.56040916	     -8.60561700	     -6.03349438	      0.00000000	    -15.27259182	     16.18055732	    -10.39508850	     -9.52926896	    -16.87777779	     -5.51048663	     31.11612183	     68.17016705	     38.96674246	      3.44436243	     30.01554320	    141.12224929	     89.52519426
      6.51666670	     -3.72033971	    -10.68996704	      5.27935809	      2.04803515	      0.71604054	     -0.62430877	     72.06908319	      1.73377297	     -8.94660530	     84.15965098	     19.38725683	    -15.62721622	      0.00000000	    -24.43444522	    -14.61117345	     -2.30296958	     55.88624215	     -8.85549761	     -6.96773427	      0.00000000	    -15.23680350	     16.04025315	    -10.47621146	     -9.69205372	    -16.91806728	     -5.64942863	     30.45768600	     68.40793136	     38.48843663	      3.11302364	     29.52181182	    141.26586934	     89.24602687
      6.52500000	     -3.30243823	    -10.41321214	      5.47639353	      2.04152412	      0.72150420	     -0.62547463	     71.10985967	      1.47304050	     -8.63637130	     82.40148805	     17.88279425	    -14.68252086	      0.00000000	    -24.31831885	    -14.29486033	     -1.92959976	     55.96713316	     -7.04034124	     -7.47887334	      0.00000000	    -15.29005445	     15.87042491	    -10.33576393	    -10.15220989	    -16.87089266	     -5.64864251	     30.07983223	     68.45362030	     38.00927701	      2.74868804	     29.41184443	    141.34407101	     89.19105976
      6.53333330	     -2.43451958	    -10.05773583	      5.71991666	      2.03357151	      0.72736309	     -0.62675660	     69.87013387	      1.21919647	     -8.35689748	     80.98671075	     17.25132561	    -14.95695733	      0.00000000	    -24.14122571	    -13.90796386	     -1.48259457	     56.92956026	     -6.48090288	     -7.34253127	      0.00000000	    -16.11992294	     15.57849442	    -10.57074199	     -9.83197349	    -16.73842991	     -5.80264670	     29.12151500	     68.65003329	     37.96971667	      2.48172041	     28.92334026	    141.80510417	     88.89681436
      6.54166670	     -1.70504139	     -9.72297377	      6.09020974	      2.02502368	      0.73786336	     -0.62821284	     68.41723112	      0.89388156	     -8.07571592	     78.93572319	     16.40791962	    -14.30469541	      0.00000000	    -23.69878591	    -13.58230322	     -0.94725980	     57.63440563	     -6.48032368	     -7.94799839	      0.00000000	    -16.82103870	     15.41516776	    -10.82654806	     -9.64803058	    -16.56520306	     -5.87540622	     28.21912018	     68.83821141	     37.93597434	      2.01367101	     28.77132921	    142.18661952	     88.63879609
      6.55000000	     -0.99827719	     -9.31965802	      6.48009346	      2.01881574	      0.74511998	     -0.62970702	     67.02246540	      0.44203707	     -7.80311701	     77.16906082	     15.06100700	    -13.66114337	      0.00000000	    -23.49648227	    -13.25060076	     -0.45303373	     57.97509054	     -4.55187806	     -7.30765708	      0.00000000	    -17.27130911	     15.03622304	    -11.10832187	     -9.60790891	    -16.36816697	     -5.85676203	     27.41804077	     68.98300246	     37.89002789	      1.66830620	     28.59746965	    142.15315661	     88.45000610
      6.55833330	     -0.47367662	     -8.97679660	      6.78523693	      2.01165602	      0.75129700	     -0.63067745	     65.96146541	     -0.00348065	     -7.58437142	     75.63588840	     14.16047522	    -13.26662218	      0.00000000	    -23.47456014	    -12.84161109	      0.00310970	     57.98668844	     -2.02261819	     -6.67566518	      0.00000000	    -17.56546004	     14.60365507	    -11.45468673	     -9.45140365	    -16.16897558	     -5.80977418	     26.74682088	     69.11941745	     37.72425784	      1.36253996	     28.62775988	    142.21001803	     88.29844736
      6.56666670	      0.13513106	     -8.88547610	      6.96577531	      2.00726707	      0.75592892	     -0.63255455	     64.83035083	     -0.10065398	     -7.56200975	     74.29181361	     13.74211089	    -12.85636772	      0.00000000	    -23.50382895	    -12.60331439	      0.27603596	     58.18917117	     -0.38900070	     -6.30485288	      0.00000000	    -17.43727135	     14.32655069	    -11.84521173	     -9.41771645	    -15.99733183	     -5.70392719	     25.98643840	     69.32063511	     37.34028685	      0.88263451	     28.72419593	    142.34406557	     88.08593232
